<mxfile host="app.diagrams.net" modified="2021-09-08T02:42:23.920Z" agent="5.0 (X11)" etag="5Jg7pfdAatqSUa96nruV" version="15.1.0" type="github">
  <diagram name="Page-1" id="2a216829-ef6e-dabb-86c1-c78162f3ba2b">
    <mxGraphModel dx="2272" dy="746" grid="1" gridSize="10" guides="1" tooltips="1" connect="1" arrows="1" fold="1" page="1" pageScale="1" pageWidth="850" pageHeight="1100" background="none" math="0" shadow="0">
      <root>
        <mxCell id="0" />
        <mxCell id="1" parent="0" />
        <mxCell id="hD6tDqFBUp-G2Wy_6Xi5-2" value="Aplicación de restaurantes" style="swimlane;childLayout=stackLayout;resizeParent=1;resizeParentMax=0;horizontal=1;startSize=20;horizontalStack=0;" parent="1" vertex="1">
          <mxGeometry x="-200" y="60" width="1980" height="720" as="geometry" />
        </mxCell>
        <mxCell id="hD6tDqFBUp-G2Wy_6Xi5-3" value="Clientes" style="swimlane;startSize=20;horizontal=0;" parent="hD6tDqFBUp-G2Wy_6Xi5-2" vertex="1">
          <mxGeometry y="20" width="1980" height="240" as="geometry" />
        </mxCell>
        <mxCell id="hD6tDqFBUp-G2Wy_6Xi5-6" value="Escoge pedido" style="points=[[0.25,0,0],[0.5,0,0],[0.75,0,0],[1,0.25,0],[1,0.5,0],[1,0.75,0],[0.75,1,0],[0.5,1,0],[0.25,1,0],[0,0.75,0],[0,0.5,0],[0,0.25,0]];shape=mxgraph.bpmn.task;whiteSpace=wrap;rectStyle=rounded;size=10;bpmnShapeType=call;taskMarker=user;" parent="hD6tDqFBUp-G2Wy_6Xi5-3" vertex="1">
          <mxGeometry x="180" y="75" width="120" height="80" as="geometry" />
        </mxCell>
        <mxCell id="hD6tDqFBUp-G2Wy_6Xi5-8" value="" style="edgeStyle=orthogonalEdgeStyle;rounded=0;orthogonalLoop=1;jettySize=auto;html=1;" parent="hD6tDqFBUp-G2Wy_6Xi5-3" source="hD6tDqFBUp-G2Wy_6Xi5-7" target="hD6tDqFBUp-G2Wy_6Xi5-6" edge="1">
          <mxGeometry relative="1" as="geometry" />
        </mxCell>
        <mxCell id="hD6tDqFBUp-G2Wy_6Xi5-7" value="" style="points=[[0.145,0.145,0],[0.5,0,0],[0.855,0.145,0],[1,0.5,0],[0.855,0.855,0],[0.5,1,0],[0.145,0.855,0],[0,0.5,0]];shape=mxgraph.bpmn.event;html=1;verticalLabelPosition=bottom;labelBackgroundColor=#ffffff;verticalAlign=top;align=center;perimeter=ellipsePerimeter;outlineConnect=0;aspect=fixed;outline=standard;symbol=general;" parent="hD6tDqFBUp-G2Wy_6Xi5-3" vertex="1">
          <mxGeometry x="50" y="90" width="50" height="50" as="geometry" />
        </mxCell>
        <mxCell id="GUnSBlpm5lB_lreghJjV-8" value="Recibe comprobante" style="points=[[0.145,0.145,0],[0.5,0,0],[0.855,0.145,0],[1,0.5,0],[0.855,0.855,0],[0.5,1,0],[0.145,0.855,0],[0,0.5,0]];shape=mxgraph.bpmn.event;html=1;verticalLabelPosition=bottom;labelBackgroundColor=#ffffff;verticalAlign=top;align=center;perimeter=ellipsePerimeter;outlineConnect=0;aspect=fixed;outline=end;symbol=message;" vertex="1" parent="hD6tDqFBUp-G2Wy_6Xi5-3">
          <mxGeometry x="1380" y="80" width="50" height="50" as="geometry" />
        </mxCell>
        <mxCell id="hD6tDqFBUp-G2Wy_6Xi5-4" value="Sistema" style="swimlane;startSize=20;horizontal=0;" parent="hD6tDqFBUp-G2Wy_6Xi5-2" vertex="1">
          <mxGeometry y="260" width="1980" height="220" as="geometry" />
        </mxCell>
        <mxCell id="hD6tDqFBUp-G2Wy_6Xi5-11" value="Paga pedido" style="points=[[0.25,0,0],[0.5,0,0],[0.75,0,0],[1,0.25,0],[1,0.5,0],[1,0.75,0],[0.75,1,0],[0.5,1,0],[0.25,1,0],[0,0.75,0],[0,0.5,0],[0,0.25,0]];shape=mxgraph.bpmn.task;whiteSpace=wrap;rectStyle=rounded;size=10;bpmnShapeType=call;isLoopSub=1;" parent="hD6tDqFBUp-G2Wy_6Xi5-4" vertex="1">
          <mxGeometry x="920" y="72.5" width="110" height="65" as="geometry" />
        </mxCell>
        <mxCell id="hD6tDqFBUp-G2Wy_6Xi5-13" value="" style="edgeStyle=orthogonalEdgeStyle;rounded=0;orthogonalLoop=1;jettySize=auto;html=1;entryX=0;entryY=0.5;entryDx=0;entryDy=0;entryPerimeter=0;" parent="hD6tDqFBUp-G2Wy_6Xi5-4" source="hD6tDqFBUp-G2Wy_6Xi5-11" target="hD6tDqFBUp-G2Wy_6Xi5-26" edge="1">
          <mxGeometry relative="1" as="geometry">
            <mxPoint x="1110" y="95" as="targetPoint" />
          </mxGeometry>
        </mxCell>
        <mxCell id="hD6tDqFBUp-G2Wy_6Xi5-20" value="" style="endArrow=classic;html=1;exitX=1;exitY=0.5;exitDx=0;exitDy=0;exitPerimeter=0;" parent="hD6tDqFBUp-G2Wy_6Xi5-4" edge="1">
          <mxGeometry width="50" height="50" relative="1" as="geometry">
            <mxPoint x="300" y="110" as="sourcePoint" />
            <mxPoint x="350" y="110" as="targetPoint" />
          </mxGeometry>
        </mxCell>
        <mxCell id="hD6tDqFBUp-G2Wy_6Xi5-21" value="Añade a carrito de compras" style="points=[[0.25,0,0],[0.5,0,0],[0.75,0,0],[1,0.25,0],[1,0.5,0],[1,0.75,0],[0.75,1,0],[0.5,1,0],[0.25,1,0],[0,0.75,0],[0,0.5,0],[0,0.25,0]];shape=mxgraph.bpmn.task;whiteSpace=wrap;rectStyle=rounded;size=10;taskMarker=abstract;" parent="hD6tDqFBUp-G2Wy_6Xi5-4" vertex="1">
          <mxGeometry x="180" y="70" width="120" height="80" as="geometry" />
        </mxCell>
        <mxCell id="hD6tDqFBUp-G2Wy_6Xi5-29" value="" style="edgeStyle=orthogonalEdgeStyle;rounded=0;orthogonalLoop=1;jettySize=auto;html=1;entryX=0;entryY=0.5;entryDx=0;entryDy=0;entryPerimeter=0;" parent="hD6tDqFBUp-G2Wy_6Xi5-4" source="hD6tDqFBUp-G2Wy_6Xi5-26" target="GUnSBlpm5lB_lreghJjV-4" edge="1">
          <mxGeometry relative="1" as="geometry">
            <mxPoint x="1270" y="105" as="targetPoint" />
          </mxGeometry>
        </mxCell>
        <mxCell id="hD6tDqFBUp-G2Wy_6Xi5-26" value="Guarda pedido" style="points=[[0.25,0,0],[0.5,0,0],[0.75,0,0],[1,0.25,0],[1,0.5,0],[1,0.75,0],[0.75,1,0],[0.5,1,0],[0.25,1,0],[0,0.75,0],[0,0.5,0],[0,0.25,0]];shape=mxgraph.bpmn.task;whiteSpace=wrap;rectStyle=rounded;size=10;taskMarker=script;" parent="hD6tDqFBUp-G2Wy_6Xi5-4" vertex="1">
          <mxGeometry x="1090" y="70" width="110" height="70" as="geometry" />
        </mxCell>
        <mxCell id="hD6tDqFBUp-G2Wy_6Xi5-27" value="Envía orden" style="points=[[0.145,0.145,0],[0.5,0,0],[0.855,0.145,0],[1,0.5,0],[0.855,0.855,0],[0.5,1,0],[0.145,0.855,0],[0,0.5,0]];shape=mxgraph.bpmn.event;html=1;verticalLabelPosition=bottom;labelBackgroundColor=#ffffff;verticalAlign=top;align=center;perimeter=ellipsePerimeter;outlineConnect=0;aspect=fixed;outline=eventNonint;symbol=message;" parent="hD6tDqFBUp-G2Wy_6Xi5-4" vertex="1">
          <mxGeometry x="1380" y="130" width="50" height="50" as="geometry" />
        </mxCell>
        <mxCell id="hD6tDqFBUp-G2Wy_6Xi5-34" value="Retiro en el local" style="points=[[0.25,0,0],[0.5,0,0],[0.75,0,0],[1,0.25,0],[1,0.5,0],[1,0.75,0],[0.75,1,0],[0.5,1,0],[0.25,1,0],[0,0.75,0],[0,0.5,0],[0,0.25,0]];shape=mxgraph.bpmn.task;whiteSpace=wrap;rectStyle=rounded;size=10;taskMarker=abstract;" parent="hD6tDqFBUp-G2Wy_6Xi5-4" vertex="1">
          <mxGeometry x="510" y="30" width="120" height="60" as="geometry" />
        </mxCell>
        <mxCell id="hD6tDqFBUp-G2Wy_6Xi5-54" value="Delivery" style="points=[[0.25,0,0],[0.5,0,0],[0.75,0,0],[1,0.25,0],[1,0.5,0],[1,0.75,0],[0.75,1,0],[0.5,1,0],[0.25,1,0],[0,0.75,0],[0,0.5,0],[0,0.25,0]];shape=mxgraph.bpmn.task;whiteSpace=wrap;rectStyle=rounded;size=10;taskMarker=abstract;" parent="hD6tDqFBUp-G2Wy_6Xi5-4" vertex="1">
          <mxGeometry x="510" y="130" width="120" height="60" as="geometry" />
        </mxCell>
        <mxCell id="hD6tDqFBUp-G2Wy_6Xi5-55" value="" style="endArrow=classic;html=1;entryX=0;entryY=0.5;entryDx=0;entryDy=0;entryPerimeter=0;" parent="hD6tDqFBUp-G2Wy_6Xi5-4" target="hD6tDqFBUp-G2Wy_6Xi5-34" edge="1">
          <mxGeometry width="50" height="50" relative="1" as="geometry">
            <mxPoint x="450" y="110" as="sourcePoint" />
            <mxPoint x="450" y="60" as="targetPoint" />
            <Array as="points">
              <mxPoint x="450" y="60" />
            </Array>
          </mxGeometry>
        </mxCell>
        <mxCell id="hD6tDqFBUp-G2Wy_6Xi5-56" value="" style="endArrow=classic;html=1;entryX=0;entryY=0.5;entryDx=0;entryDy=0;entryPerimeter=0;" parent="hD6tDqFBUp-G2Wy_6Xi5-4" target="hD6tDqFBUp-G2Wy_6Xi5-54" edge="1">
          <mxGeometry width="50" height="50" relative="1" as="geometry">
            <mxPoint x="450" y="110" as="sourcePoint" />
            <mxPoint x="470" y="90" as="targetPoint" />
            <Array as="points">
              <mxPoint x="450" y="160" />
            </Array>
          </mxGeometry>
        </mxCell>
        <mxCell id="hD6tDqFBUp-G2Wy_6Xi5-59" value="" style="endArrow=none;html=1;exitX=1;exitY=0.5;exitDx=0;exitDy=0;exitPerimeter=0;" parent="hD6tDqFBUp-G2Wy_6Xi5-4" edge="1">
          <mxGeometry width="50" height="50" relative="1" as="geometry">
            <mxPoint x="400" y="110" as="sourcePoint" />
            <mxPoint x="450" y="110" as="targetPoint" />
          </mxGeometry>
        </mxCell>
        <mxCell id="hD6tDqFBUp-G2Wy_6Xi5-60" value="" style="points=[[0.25,0.25,0],[0.5,0,0],[0.75,0.25,0],[1,0.5,0],[0.75,0.75,0],[0.5,1,0],[0.25,0.75,0],[0,0.5,0]];shape=mxgraph.bpmn.gateway2;html=1;verticalLabelPosition=bottom;labelBackgroundColor=#ffffff;verticalAlign=top;align=center;perimeter=rhombusPerimeter;outlineConnect=0;outline=none;symbol=none;" parent="hD6tDqFBUp-G2Wy_6Xi5-4" vertex="1">
          <mxGeometry x="350" y="85" width="50" height="50" as="geometry" />
        </mxCell>
        <mxCell id="hD6tDqFBUp-G2Wy_6Xi5-66" value="" style="edgeStyle=orthogonalEdgeStyle;rounded=0;orthogonalLoop=1;jettySize=auto;html=1;" parent="hD6tDqFBUp-G2Wy_6Xi5-4" source="hD6tDqFBUp-G2Wy_6Xi5-61" target="hD6tDqFBUp-G2Wy_6Xi5-11" edge="1">
          <mxGeometry relative="1" as="geometry" />
        </mxCell>
        <mxCell id="hD6tDqFBUp-G2Wy_6Xi5-61" value="Crea pedido" style="points=[[0.25,0,0],[0.5,0,0],[0.75,0,0],[1,0.25,0],[1,0.5,0],[1,0.75,0],[0.75,1,0],[0.5,1,0],[0.25,1,0],[0,0.75,0],[0,0.5,0],[0,0.25,0]];shape=mxgraph.bpmn.task;whiteSpace=wrap;rectStyle=rounded;size=10;taskMarker=abstract;" parent="hD6tDqFBUp-G2Wy_6Xi5-4" vertex="1">
          <mxGeometry x="730" y="70" width="120" height="70" as="geometry" />
        </mxCell>
        <mxCell id="hD6tDqFBUp-G2Wy_6Xi5-63" value="" style="endArrow=classic;html=1;entryX=0;entryY=0.5;entryDx=0;entryDy=0;entryPerimeter=0;" parent="hD6tDqFBUp-G2Wy_6Xi5-4" target="hD6tDqFBUp-G2Wy_6Xi5-61" edge="1">
          <mxGeometry width="50" height="50" relative="1" as="geometry">
            <mxPoint x="690" y="105" as="sourcePoint" />
            <mxPoint x="720" y="80" as="targetPoint" />
          </mxGeometry>
        </mxCell>
        <mxCell id="hD6tDqFBUp-G2Wy_6Xi5-64" value="" style="endArrow=none;html=1;entryX=1;entryY=0.5;entryDx=0;entryDy=0;entryPerimeter=0;" parent="hD6tDqFBUp-G2Wy_6Xi5-4" target="hD6tDqFBUp-G2Wy_6Xi5-34" edge="1">
          <mxGeometry width="50" height="50" relative="1" as="geometry">
            <mxPoint x="690" y="110" as="sourcePoint" />
            <mxPoint x="710" y="40" as="targetPoint" />
            <Array as="points">
              <mxPoint x="690" y="60" />
            </Array>
          </mxGeometry>
        </mxCell>
        <mxCell id="hD6tDqFBUp-G2Wy_6Xi5-65" value="" style="endArrow=none;html=1;exitX=1;exitY=0.5;exitDx=0;exitDy=0;exitPerimeter=0;" parent="hD6tDqFBUp-G2Wy_6Xi5-4" source="hD6tDqFBUp-G2Wy_6Xi5-54" edge="1">
          <mxGeometry width="50" height="50" relative="1" as="geometry">
            <mxPoint x="670" y="180" as="sourcePoint" />
            <mxPoint x="690" y="110" as="targetPoint" />
            <Array as="points">
              <mxPoint x="690" y="160" />
            </Array>
          </mxGeometry>
        </mxCell>
        <mxCell id="GUnSBlpm5lB_lreghJjV-2" value="" style="endArrow=classic;html=1;entryX=0;entryY=0;entryDx=0;entryDy=37.5;entryPerimeter=0;exitX=0.4;exitY=1.057;exitDx=0;exitDy=0;exitPerimeter=0;" edge="1" parent="hD6tDqFBUp-G2Wy_6Xi5-4" source="hD6tDqFBUp-G2Wy_6Xi5-26">
          <mxGeometry width="50" height="50" relative="1" as="geometry">
            <mxPoint x="1080" y="220" as="sourcePoint" />
            <mxPoint x="1160" y="187.5" as="targetPoint" />
            <Array as="points">
              <mxPoint x="1134" y="190" />
            </Array>
          </mxGeometry>
        </mxCell>
        <mxCell id="GUnSBlpm5lB_lreghJjV-3" value="" style="shape=datastore;whiteSpace=wrap;html=1;labelPosition=center;verticalLabelPosition=bottom;align=center;verticalAlign=top;" vertex="1" parent="hD6tDqFBUp-G2Wy_6Xi5-4">
          <mxGeometry x="1160" y="150" width="60" height="57" as="geometry" />
        </mxCell>
        <mxCell id="GUnSBlpm5lB_lreghJjV-4" value="" style="points=[[0.25,0.25,0],[0.5,0,0],[0.75,0.25,0],[1,0.5,0],[0.75,0.75,0],[0.5,1,0],[0.25,0.75,0],[0,0.5,0]];shape=mxgraph.bpmn.gateway2;html=1;verticalLabelPosition=bottom;labelBackgroundColor=#ffffff;verticalAlign=top;align=center;perimeter=rhombusPerimeter;outlineConnect=0;outline=end;symbol=general;" vertex="1" parent="hD6tDqFBUp-G2Wy_6Xi5-4">
          <mxGeometry x="1290" y="80" width="50" height="50" as="geometry" />
        </mxCell>
        <mxCell id="GUnSBlpm5lB_lreghJjV-5" value="&lt;div&gt;Envía comprobante &lt;br&gt;&lt;/div&gt;&lt;div&gt;de orden&lt;br&gt;&lt;/div&gt;" style="points=[[0.145,0.145,0],[0.5,0,0],[0.855,0.145,0],[1,0.5,0],[0.855,0.855,0],[0.5,1,0],[0.145,0.855,0],[0,0.5,0]];shape=mxgraph.bpmn.event;html=1;verticalLabelPosition=bottom;labelBackgroundColor=#ffffff;verticalAlign=top;align=center;perimeter=ellipsePerimeter;outlineConnect=0;aspect=fixed;outline=eventNonint;symbol=message;" vertex="1" parent="hD6tDqFBUp-G2Wy_6Xi5-4">
          <mxGeometry x="1380" y="30" width="50" height="50" as="geometry" />
        </mxCell>
        <mxCell id="GUnSBlpm5lB_lreghJjV-6" value="" style="endArrow=classic;html=1;entryX=0;entryY=0.5;entryDx=0;entryDy=0;entryPerimeter=0;" edge="1" parent="hD6tDqFBUp-G2Wy_6Xi5-4" target="GUnSBlpm5lB_lreghJjV-5">
          <mxGeometry width="50" height="50" relative="1" as="geometry">
            <mxPoint x="1340" y="100" as="sourcePoint" />
            <mxPoint x="1390" y="30" as="targetPoint" />
            <Array as="points">
              <mxPoint x="1340" y="55" />
            </Array>
          </mxGeometry>
        </mxCell>
        <mxCell id="GUnSBlpm5lB_lreghJjV-7" value="" style="endArrow=classic;html=1;exitX=1;exitY=0.5;exitDx=0;exitDy=0;exitPerimeter=0;" edge="1" parent="hD6tDqFBUp-G2Wy_6Xi5-4" source="GUnSBlpm5lB_lreghJjV-4">
          <mxGeometry width="50" height="50" relative="1" as="geometry">
            <mxPoint x="1330" y="200" as="sourcePoint" />
            <mxPoint x="1380" y="150" as="targetPoint" />
            <Array as="points">
              <mxPoint x="1340" y="150" />
            </Array>
          </mxGeometry>
        </mxCell>
        <mxCell id="hD6tDqFBUp-G2Wy_6Xi5-31" value="" style="endArrow=classic;html=1;exitX=0.5;exitY=1;exitDx=0;exitDy=0;exitPerimeter=0;entryX=0.5;entryY=0;entryDx=0;entryDy=0;entryPerimeter=0;dashed=1;" parent="hD6tDqFBUp-G2Wy_6Xi5-2" source="hD6tDqFBUp-G2Wy_6Xi5-27" target="hD6tDqFBUp-G2Wy_6Xi5-30" edge="1">
          <mxGeometry width="50" height="50" relative="1" as="geometry">
            <mxPoint x="930" y="430" as="sourcePoint" />
            <mxPoint x="895" y="580" as="targetPoint" />
          </mxGeometry>
        </mxCell>
        <mxCell id="hD6tDqFBUp-G2Wy_6Xi5-5" value="Administrador" style="swimlane;startSize=20;horizontal=0;" parent="hD6tDqFBUp-G2Wy_6Xi5-2" vertex="1">
          <mxGeometry y="480" width="1980" height="240" as="geometry" />
        </mxCell>
        <mxCell id="hD6tDqFBUp-G2Wy_6Xi5-30" value="Recibe orden de pedido" style="points=[[0.145,0.145,0],[0.5,0,0],[0.855,0.145,0],[1,0.5,0],[0.855,0.855,0],[0.5,1,0],[0.145,0.855,0],[0,0.5,0]];shape=mxgraph.bpmn.event;html=1;verticalLabelPosition=bottom;labelBackgroundColor=#ffffff;verticalAlign=top;align=center;perimeter=ellipsePerimeter;outlineConnect=0;aspect=fixed;outline=end;symbol=message;" parent="hD6tDqFBUp-G2Wy_6Xi5-5" vertex="1">
          <mxGeometry x="1380" y="60" width="50" height="50" as="geometry" />
        </mxCell>
        <mxCell id="hD6tDqFBUp-G2Wy_6Xi5-67" value="Prepara pedido" style="points=[[0.25,0,0],[0.5,0,0],[0.75,0,0],[1,0.25,0],[1,0.5,0],[1,0.75,0],[0.75,1,0],[0.5,1,0],[0.25,1,0],[0,0.75,0],[0,0.5,0],[0,0.25,0]];shape=mxgraph.bpmn.task;whiteSpace=wrap;rectStyle=rounded;size=10;taskMarker=abstract;" parent="hD6tDqFBUp-G2Wy_6Xi5-5" vertex="1">
          <mxGeometry x="1500" y="52.5" width="120" height="65" as="geometry" />
        </mxCell>
        <mxCell id="hD6tDqFBUp-G2Wy_6Xi5-70" value="" style="endArrow=classic;html=1;exitX=1;exitY=0.5;exitDx=0;exitDy=0;exitPerimeter=0;entryX=0;entryY=0.5;entryDx=0;entryDy=0;entryPerimeter=0;" parent="hD6tDqFBUp-G2Wy_6Xi5-5" source="hD6tDqFBUp-G2Wy_6Xi5-30" target="hD6tDqFBUp-G2Wy_6Xi5-67" edge="1">
          <mxGeometry width="50" height="50" relative="1" as="geometry">
            <mxPoint x="1320" y="20" as="sourcePoint" />
            <mxPoint x="1370" y="-30" as="targetPoint" />
          </mxGeometry>
        </mxCell>
        <mxCell id="GUnSBlpm5lB_lreghJjV-11" value="¿Es Delivery?" style="points=[[0.25,0.25,0],[0.5,0,0],[0.75,0.25,0],[1,0.5,0],[0.75,0.75,0],[0.5,1,0],[0.25,0.75,0],[0,0.5,0]];shape=mxgraph.bpmn.gateway2;html=1;verticalLabelPosition=bottom;labelBackgroundColor=#ffffff;verticalAlign=top;align=center;perimeter=rhombusPerimeter;outlineConnect=0;outline=none;symbol=none;" vertex="1" parent="hD6tDqFBUp-G2Wy_6Xi5-5">
          <mxGeometry x="1690" y="60" width="50" height="50" as="geometry" />
        </mxCell>
        <mxCell id="GUnSBlpm5lB_lreghJjV-12" value="" style="endArrow=classic;html=1;exitX=1;exitY=0.5;exitDx=0;exitDy=0;exitPerimeter=0;entryX=0;entryY=0.5;entryDx=0;entryDy=0;entryPerimeter=0;" edge="1" parent="hD6tDqFBUp-G2Wy_6Xi5-5" source="hD6tDqFBUp-G2Wy_6Xi5-67" target="GUnSBlpm5lB_lreghJjV-11">
          <mxGeometry width="50" height="50" relative="1" as="geometry">
            <mxPoint x="1670" y="70" as="sourcePoint" />
            <mxPoint x="1720" y="20" as="targetPoint" />
          </mxGeometry>
        </mxCell>
        <mxCell id="GUnSBlpm5lB_lreghJjV-13" value="Espera despacho en el local" style="points=[[0.25,0,0],[0.5,0,0],[0.75,0,0],[1,0.25,0],[1,0.5,0],[1,0.75,0],[0.75,1,0],[0.5,1,0],[0.25,1,0],[0,0.75,0],[0,0.5,0],[0,0.25,0]];shape=mxgraph.bpmn.task;whiteSpace=wrap;rectStyle=rounded;size=10;taskMarker=abstract;" vertex="1" parent="hD6tDqFBUp-G2Wy_6Xi5-5">
          <mxGeometry x="1780" y="110" width="120" height="65" as="geometry" />
        </mxCell>
        <mxCell id="hD6tDqFBUp-G2Wy_6Xi5-19" value="" style="endArrow=classic;html=1;exitX=0.5;exitY=1;exitDx=0;exitDy=0;exitPerimeter=0;entryX=0.5;entryY=0;entryDx=0;entryDy=0;entryPerimeter=0;dashed=1;" parent="hD6tDqFBUp-G2Wy_6Xi5-2" source="hD6tDqFBUp-G2Wy_6Xi5-6" edge="1">
          <mxGeometry width="50" height="50" relative="1" as="geometry">
            <mxPoint x="260" y="260" as="sourcePoint" />
            <mxPoint x="240" y="330" as="targetPoint" />
          </mxGeometry>
        </mxCell>
        <mxCell id="GUnSBlpm5lB_lreghJjV-10" value="" style="endArrow=classic;html=1;dashed=1;exitX=0.5;exitY=0;exitDx=0;exitDy=0;exitPerimeter=0;entryX=0.5;entryY=1;entryDx=0;entryDy=0;entryPerimeter=0;" edge="1" parent="hD6tDqFBUp-G2Wy_6Xi5-2" source="GUnSBlpm5lB_lreghJjV-5" target="GUnSBlpm5lB_lreghJjV-8">
          <mxGeometry width="50" height="50" relative="1" as="geometry">
            <mxPoint x="1460" y="250" as="sourcePoint" />
            <mxPoint x="1510" y="200" as="targetPoint" />
          </mxGeometry>
        </mxCell>
      </root>
    </mxGraphModel>
  </diagram>
</mxfile>
